HIERARCHY
ROOT Hips
{
	OFFSET 0.000000 0.000000 0.000000
	CHANNELS 6 Xposition Yposition Zposition Yrotation Xrotation Zrotation
	JOINT Chest
	{
		OFFSET 0.000000 -0.009282 11.569106
		CHANNELS 6 Xposition Yposition Zposition Yrotation Xrotation Zrotation
		JOINT Chest2
		{
			OFFSET -0.000000 0.016863 9.269641
			CHANNELS 6 Xposition Yposition Zposition Yrotation Xrotation Zrotation
			JOINT Chest3
			{
				OFFSET -0.000000 0.000000 8.374491
				CHANNELS 6 Xposition Yposition Zposition Yrotation Xrotation Zrotation
				JOINT Chest4
				{
					OFFSET -0.000000 0.000000 8.374493
					CHANNELS 6 Xposition Yposition Zposition Yrotation Xrotation Zrotation
					JOINT Neck
					{
						OFFSET -0.000000 0.000001 12.152554
						CHANNELS 6 Xposition Yposition Zposition Yrotation Xrotation Zrotation
						JOINT Head
						{
							OFFSET -0.000000 0.040100 7.802319
							CHANNELS 6 Xposition Yposition Zposition Yrotation Xrotation Zrotation
							End Site
							{
								OFFSET -0.000000 0.020946 14.853096
							}
						}
					}
					JOINT RightCollar
					{
						OFFSET 2.894404 0.000001 6.791374
						CHANNELS 6 Xposition Yposition Zposition Yrotation Xrotation Zrotation
						JOINT RightShoulder
						{
							OFFSET 13.574684 0.000001 0.000000
							CHANNELS 6 Xposition Yposition Zposition Yrotation Xrotation Zrotation
							JOINT RightElbow
							{
								OFFSET 23.923903 0.000002 0.000000
								CHANNELS 6 Xposition Yposition Zposition Yrotation Xrotation Zrotation
								JOINT RightWrist
								{
									OFFSET 19.846718 0.012767 0.000000
									CHANNELS 6 Xposition Yposition Zposition Yrotation Xrotation Zrotation
									End Site
									{
										OFFSET 14.973145 0.000001 0.000000
									}
								}
							}
						}
					}
					JOINT LeftCollar
					{
						OFFSET -2.894404 0.000000 6.791374
						CHANNELS 6 Xposition Yposition Zposition Yrotation Xrotation Zrotation
						JOINT LeftShoulder
						{
							OFFSET -13.574684 -0.000001 0.000000
							CHANNELS 6 Xposition Yposition Zposition Yrotation Xrotation Zrotation
							JOINT LeftElbow
							{
								OFFSET -23.923903 -0.000002 0.000000
								CHANNELS 6 Xposition Yposition Zposition Yrotation Xrotation Zrotation
								JOINT LeftWrist
								{
									OFFSET -19.846718 0.012763 0.000000
									CHANNELS 6 Xposition Yposition Zposition Yrotation Xrotation Zrotation
									End Site
									{
										OFFSET -14.973145 -0.000001 0.000000
									}
								}
							}
						}
					}
				}
			}
		}
	}
	JOINT RightHip
	{
		OFFSET 9.469263 0.004643 0.045487
		CHANNELS 6 Xposition Yposition Zposition Yrotation Xrotation Zrotation
		JOINT RightKnee
		{
			OFFSET 0.000000 0.002666 -40.478676
			CHANNELS 6 Xposition Yposition Zposition Yrotation Xrotation Zrotation
			JOINT RightAnkle
			{
				OFFSET 0.000000 0.049110 -35.224068
				CHANNELS 6 Xposition Yposition Zposition Yrotation Xrotation Zrotation
				JOINT RightToe
				{
					OFFSET -0.000001 12.539530 -6.151390
					CHANNELS 6 Xposition Yposition Zposition Yrotation Xrotation Zrotation
					End Site
					{
						OFFSET -0.000001 5.044996 -1.291870
					}
				}
			}
		}
	}
	JOINT LeftHip
	{
		OFFSET -9.469263 0.004641 0.045487
		CHANNELS 6 Xposition Yposition Zposition Yrotation Xrotation Zrotation
		JOINT LeftKnee
		{
			OFFSET 0.000000 0.002666 -40.478676
			CHANNELS 6 Xposition Yposition Zposition Yrotation Xrotation Zrotation
			JOINT LeftAnkle
			{
				OFFSET 0.000000 0.049110 -35.224068
				CHANNELS 6 Xposition Yposition Zposition Yrotation Xrotation Zrotation
				JOINT LeftToe
				{
					OFFSET -0.000001 12.539530 -6.151390
					CHANNELS 6 Xposition Yposition Zposition Yrotation Xrotation Zrotation
					End Site
					{
						OFFSET -0.000001 5.044996 -1.291870
					}
				}
			}
		}
	}
}
MOTION
Frames: 5
Frame Time: 0.016667
5.685340 4.167904 83.060738 -10.579891 -3.127601 -103.698616 0.000000 -0.009287 11.569104 0.045128 -3.834377 1.129841 0.000000 0.016863 9.269632 0.023944 -1.690741 0.468500 0.000001 0.000000 8.374492 0.023943 -1.690742 0.468501 0.000001 -0.000001 8.374508 0.019253 -1.268039 0.351417 0.000001 -0.000000 12.152567 5.183324 -19.248704 -9.780967 0.000000 0.040095 7.802315 6.391936 0.502196 -16.248363 2.894404 -0.000000 6.791381 7.952489 -1.760976 -9.762272 13.574682 0.000001 -0.000008 75.309802 8.411499 36.896231 23.923904 0.000021 -0.000003 35.217675 -44.798582 71.613441 19.846714 0.012767 -0.000001 -13.260919 23.027353 47.754620 -2.894403 -0.000001 6.791376 -7.880075 -2.336944 -5.487374 -13.574686 0.000000 -0.000010 -72.590021 -11.097903 -36.971455 -23.923891 0.000004 -0.000007 -20.275048 -14.780801 -74.384728 -19.846712 0.012758 0.000009 9.341207 18.567541 -60.021729 9.469263 0.004641 0.045483 1.547430 -14.487533 -11.048393 0.000107 0.002659 -40.478516 -3.692489 3.147748 -2.523944 0.000024 0.049107 -35.224033 4.815633 0.968707 -0.464856 -0.000001 12.539525 -6.151385 -0.023837 0.012363 -0.000371 -9.469262 0.004640 0.045485 0.842307 -14.503540 -21.575319 -0.000881 0.002507 -40.478474 -1.038929 5.175913 19.178726 -0.000948 0.048935 -35.224049 0.999574 0.123055 20.792332 -0.000002 12.539535 -6.151391 0.089830 -0.038089 0.038723 
5.660674 4.198750 83.062103 -10.497780 -3.108808 -103.688876 0.000000 -0.009283 11.569106 0.037487 -3.846060 1.135512 -0.000000 0.016864 9.269641 0.021744 -1.698621 0.472206 0.000000 -0.000001 8.374475 0.021744 -1.698621 0.472207 -0.000000 -0.000000 8.374503 0.017619 -1.273949 0.354193 0.000000 0.000002 12.152559 5.182497 -19.153681 -9.764205 -0.000001 0.040107 7.802291 6.387117 0.678402 -16.219275 2.894403 -0.000000 6.791370 7.956093 -1.758699 -9.766429 13.574684 0.000001 0.000013 75.361917 8.442868 36.872681 23.923895 0.000008 -0.000003 35.367676 -44.817003 71.410700 19.846716 0.012760 0.000004 -13.282835 23.021892 47.724793 -2.894404 -0.000001 6.791368 -7.889688 -2.322564 -5.501902 -13.574679 0.000001 0.000008 -72.586900 -11.095727 -36.938821 -23.923897 0.000002 0.000001 -20.339316 -14.730290 -74.310313 -19.846716 0.012756 0.000008 9.339049 18.579861 -59.992195 9.469263 0.004640 0.045479 1.538616 -14.396273 -10.994335 0.000111 0.002659 -40.478516 -3.704114 3.180040 -2.598363 0.000024 0.049104 -35.224030 4.844823 0.919357 -0.447092 0.000000 12.539525 -6.151390 -0.028601 0.014099 -0.000684 -9.469263 0.004639 0.045482 0.841012 -14.414353 -21.572884 -0.000880 0.002508 -40.478455 -1.040399 5.220045 19.154314 -0.000947 0.048934 -35.224060 1.003714 0.074332 20.773025 -0.000002 12.539534 -6.151396 0.086858 -0.033501 0.036396 
5.643269 4.222854 83.062660 -10.427511 -3.098604 -103.685680 -0.000001 -0.009283 11.569109 0.039102 -3.862192 1.140949 0.000000 0.016862 9.269627 0.021295 -1.706153 0.474481 -0.000000 -0.000001 8.374492 0.021295 -1.706153 0.474482 0.000000 0.000000 8.374487 0.017295 -1.279598 0.355895 0.000001 0.000002 12.152552 5.179213 -19.063982 -9.748106 0.000000 0.040093 7.802298 6.378139 0.844527 -16.192125 2.894405 -0.000000 6.791383 7.949801 -1.737172 -9.764938 13.574685 0.000002 0.000001 75.395419 8.459305 36.851982 23.923895 0.000012 0.000001 35.492620 -44.817082 71.220418 19.846720 0.012754 -0.000004 -13.297879 23.019908 47.706993 -2.894403 -0.000001 6.791376 -7.905906 -2.287613 -5.506160 -13.574686 -0.000003 -0.000005 -72.585909 -11.094660 -36.905329 -23.923897 0.000002 0.000003 -20.423828 -14.674952 -74.218024 -19.846718 0.012774 0.000003 9.336162 18.592306 -59.963248 9.469263 0.004641 0.045487 1.535391 -14.322376 -10.964546 0.000113 0.002659 -40.478519 -3.712505 3.208883 -2.647395 0.000024 0.049107 -35.224018 4.873468 0.879915 -0.428703 0.000000 12.539528 -6.151394 -0.033865 0.015021 -0.002390 -9.469264 0.004640 0.045488 0.845870 -14.343821 -21.546776 -0.000879 0.002508 -40.478466 -1.043646 5.259728 19.129352 -0.000946 0.048938 -35.224037 1.003283 0.037928 20.729880 -0.000003 12.539532 -6.151396 0.086860 -0.031748 0.042807 
5.632442 4.238644 83.062340 -10.374841 -3.095337 -103.692688 0.000000 -0.009281 11.569111 0.042621 -3.875335 1.152547 -0.000000 0.016865 9.269640 0.020227 -1.711558 0.477961 -0.000001 0.000001 8.374488 0.020227 -1.711559 0.477960 0.000000 0.000000 8.374502 0.016508 -1.283654 0.358500 0.000000 0.000001 12.152555 5.181346 -19.001253 -9.735757 -0.000001 0.040104 7.802327 6.380306 0.961120 -16.169727 2.894403 0.000001 6.791363 7.945359 -1.715174 -9.765470 13.574683 0.000000 0.000007 75.396710 8.451548 36.840135 23.923889 0.000009 -0.000004 35.567698 -44.786619 71.074067 19.846722 0.012773 0.000002 -13.313823 23.023092 47.692773 -2.894404 -0.000000 6.791366 -7.916992 -2.251956 -5.512681 -13.574688 -0.000001 0.000011 -72.578382 -11.098791 -36.870573 -23.923889 -0.000011 0.000002 -20.475579 -14.609488 -74.137926 -19.846718 0.012762 0.000001 9.315030 18.636175 -59.941392 9.469263 0.004644 0.045490 1.537005 -14.267356 -10.942889 0.000114 0.002660 -40.478516 -3.720344 3.229343 -2.684168 0.000022 0.049106 -35.224030 4.896985 0.851677 -0.403203 -0.000000 12.539525 -6.151397 -0.037062 0.014757 -0.003179 -9.469261 0.004644 0.045490 0.849778 -14.297538 -21.506719 -0.000879 0.002508 -40.478458 -1.043015 5.297367 19.113154 -0.000948 0.048937 -35.224049 1.002692 0.013036 20.767603 -0.000003 12.539532 -6.151392 0.087079 -0.034477 0.051768 
5.624136 4.257434 83.061371 -10.334506 -3.084434 -103.688528 0.000000 -0.009281 11.569102 0.038606 -3.875031 1.146293 0.000001 0.016865 9.269635 0.020549 -1.714532 0.478585 0.000000 -0.000000 8.374481 0.020549 -1.714531 0.478585 0.000000 0.000000 8.374495 0.016753 -1.285884 0.358970 0.000000 0.000002 12.152560 5.178072 -18.959485 -9.724547 0.000002 0.040098 7.802312 6.374139 1.038444 -16.150848 2.894405 0.000000 6.791377 7.934834 -1.700272 -9.760005 13.574682 0.000002 0.000007 75.378801 8.432142 36.835675 23.923897 0.000014 -0.000001 35.599513 -44.742930 70.968794 19.846718 0.012758 0.000006 -13.321453 23.027588 47.674819 -2.894405 -0.000000 6.791381 -7.925387 -2.228582 -5.511669 -13.574687 -0.000001 0.000005 -72.568711 -11.106252 -36.848017 -23.923910 -0.000007 -0.000004 -20.482815 -14.537586 -74.075847 -19.846718 0.012752 -0.000005 9.299713 18.680967 -59.931686 9.469263 0.004643 0.045485 1.529080 -14.220104 -10.940758 0.000115 0.002659 -40.478497 -3.728019 3.237961 -2.701406 0.000022 0.049105 -35.224030 4.918666 0.837384 -0.390497 0.000002 12.539528 -6.151393 -0.036340 0.011187 -0.001565 -9.469263 0.004643 0.045486 0.850108 -14.264836 -21.484036 -0.000881 0.002507 -40.478451 -1.043395 5.330189 19.106493 -0.000941 0.048939 -35.224060 1.004932 -0.014693 20.647703 -0.000002 12.539533 -6.151389 0.077175 -0.031916 0.041987 
